<?xml version="1.0" encoding="utf-8" ?>
<svg baseProfile="full" height="297px" version="1.1" width="299px" xmlns="http://www.w3.org/2000/svg" xmlns:ev="http://www.w3.org/2001/xml-events" xmlns:xlink="http://www.w3.org/1999/xlink"><defs /><polygon fill="rgb(67,155,215)" points="29.0,0.0 28.0,1.0 24.0,1.0 23.0,2.0 21.0,2.0 20.0,3.0 19.0,3.0 18.0,4.0 17.0,4.0 15.0,6.0 14.0,6.0 7.0,13.0 7.0,14.0 4.0,17.0 4.0,18.0 2.0,20.0 2.0,21.0 1.0,22.0 1.0,24.0 0.0,25.0 0.0,38.0 1.0,39.0 1.0,41.0 2.0,42.0 2.0,43.0 3.0,44.0 3.0,45.0 7.0,49.0 7.0,50.0 26.0,69.0 27.0,69.0 28.0,70.0 28.0,71.0 33.0,76.0 34.0,76.0 100.0,142.0 101.0,142.0 105.0,146.0 106.0,146.0 108.0,148.0 106.0,150.0 105.0,150.0 95.0,160.0 94.0,160.0 92.0,162.0 92.0,163.0 91.0,164.0 90.0,164.0 90.0,165.0 89.0,166.0 88.0,166.0 88.0,167.0 87.0,168.0 86.0,168.0 85.0,169.0 85.0,170.0 75.0,180.0 74.0,180.0 74.0,181.0 59.0,196.0 58.0,196.0 58.0,197.0 55.0,200.0 54.0,200.0 52.0,202.0 52.0,203.0 16.0,239.0 15.0,239.0 5.0,249.0 5.0,250.0 3.0,252.0 3.0,253.0 2.0,254.0 2.0,255.0 1.0,256.0 1.0,259.0 0.0,260.0 0.0,270.0 1.0,271.0 1.0,273.0 2.0,274.0 2.0,276.0 3.0,277.0 3.0,278.0 6.0,281.0 6.0,282.0 13.0,289.0 14.0,289.0 17.0,292.0 18.0,292.0 19.0,293.0 20.0,293.0 21.0,294.0 22.0,294.0 23.0,295.0 26.0,295.0 27.0,296.0 37.0,296.0 38.0,295.0 41.0,295.0 42.0,294.0 43.0,294.0 44.0,293.0 45.0,293.0 46.0,292.0 47.0,292.0 49.0,290.0 50.0,290.0 148.0,192.0 150.0,192.0 248.0,290.0 249.0,290.0 251.0,292.0 252.0,292.0 253.0,293.0 254.0,293.0 255.0,294.0 256.0,294.0 257.0,295.0 259.0,295.0 260.0,296.0 272.0,296.0 273.0,295.0 275.0,295.0 276.0,294.0 277.0,294.0 278.0,293.0 279.0,293.0 280.0,292.0 281.0,292.0 284.0,289.0 285.0,289.0 288.0,286.0 288.0,285.0 293.0,280.0 293.0,279.0 294.0,278.0 294.0,277.0 296.0,275.0 296.0,273.0 297.0,272.0 297.0,268.0 298.0,267.0 298.0,262.0 297.0,261.0 297.0,258.0 296.0,257.0 296.0,255.0 295.0,254.0 295.0,253.0 294.0,252.0 294.0,251.0 291.0,248.0 291.0,247.0 270.0,226.0 269.0,226.0 198.0,155.0 197.0,155.0 190.0,148.0 196.0,142.0 197.0,142.0 293.0,46.0 293.0,45.0 294.0,44.0 294.0,43.0 295.0,42.0 295.0,41.0 296.0,40.0 296.0,38.0 297.0,37.0 297.0,24.0 296.0,23.0 296.0,21.0 295.0,20.0 295.0,19.0 294.0,18.0 294.0,17.0 291.0,14.0 291.0,13.0 286.0,8.0 285.0,8.0 282.0,5.0 281.0,5.0 279.0,3.0 278.0,3.0 277.0,2.0 276.0,2.0 275.0,1.0 272.0,1.0 271.0,0.0 260.0,0.0 259.0,1.0 257.0,1.0 256.0,2.0 255.0,2.0 254.0,3.0 253.0,3.0 252.0,4.0 251.0,4.0 249.0,6.0 248.0,6.0 149.0,105.0 148.0,105.0 145.0,102.0 145.0,101.0 119.0,75.0 118.0,75.0 115.0,72.0 115.0,71.0 114.0,71.0 49.0,6.0 48.0,6.0 46.0,4.0 45.0,4.0 44.0,3.0 43.0,3.0 42.0,2.0 40.0,2.0 39.0,1.0 35.0,1.0 34.0,0.0" /></svg>