<?xml version="1.0" encoding="utf-8" ?>
<svg baseProfile="full" height="355px" version="1.1" width="294px" xmlns="http://www.w3.org/2000/svg" xmlns:ev="http://www.w3.org/2001/xml-events" xmlns:xlink="http://www.w3.org/1999/xlink"><defs /><polygon fill="rgb(67,155,215)" points="219.0,0.0 220.0,1.0 221.0,1.0 223.0,3.0 224.0,3.0 227.0,6.0 228.0,6.0 231.0,9.0 232.0,9.0 234.0,11.0 235.0,11.0 238.0,14.0 239.0,14.0 241.0,16.0 242.0,16.0 245.0,19.0 246.0,19.0 248.0,21.0 249.0,21.0 252.0,24.0 253.0,24.0 255.0,26.0 256.0,26.0 259.0,29.0 260.0,29.0 263.0,32.0 264.0,32.0 266.0,34.0 267.0,34.0 270.0,37.0 271.0,37.0 273.0,39.0 274.0,39.0 277.0,42.0 278.0,42.0 280.0,44.0 281.0,44.0 284.0,47.0 285.0,47.0 287.0,49.0 288.0,49.0 291.0,52.0 292.0,52.0 293.0,53.0 293.0,0.0" /><polygon fill="rgb(67,155,215)" points="175.0,0.0 171.0,4.0 171.0,5.0 169.0,7.0 169.0,8.0 166.0,11.0 166.0,12.0 163.0,15.0 163.0,16.0 160.0,19.0 160.0,20.0 157.0,23.0 157.0,24.0 154.0,27.0 154.0,28.0 151.0,31.0 151.0,32.0 149.0,34.0 149.0,35.0 146.0,38.0 146.0,39.0 143.0,42.0 143.0,43.0 140.0,46.0 140.0,47.0 137.0,50.0 137.0,51.0 134.0,54.0 134.0,55.0 131.0,58.0 131.0,59.0 129.0,61.0 129.0,62.0 126.0,65.0 126.0,66.0 123.0,69.0 123.0,70.0 120.0,73.0 120.0,74.0 117.0,77.0 117.0,78.0 114.0,81.0 114.0,82.0 112.0,84.0 112.0,85.0 109.0,88.0 109.0,89.0 106.0,92.0 106.0,93.0 103.0,96.0 103.0,97.0 100.0,100.0 100.0,101.0 97.0,104.0 97.0,105.0 94.0,108.0 94.0,109.0 92.0,111.0 92.0,112.0 89.0,115.0 89.0,116.0 86.0,119.0 86.0,120.0 83.0,123.0 83.0,124.0 80.0,127.0 80.0,128.0 77.0,131.0 77.0,132.0 75.0,134.0 75.0,135.0 72.0,138.0 72.0,139.0 69.0,142.0 69.0,143.0 66.0,146.0 66.0,147.0 63.0,150.0 63.0,151.0 60.0,154.0 60.0,155.0 58.0,157.0 58.0,158.0 55.0,161.0 55.0,162.0 52.0,165.0 52.0,166.0 49.0,169.0 49.0,170.0 46.0,173.0 46.0,174.0 43.0,177.0 43.0,178.0 41.0,180.0 41.0,181.0 38.0,184.0 38.0,185.0 35.0,188.0 35.0,189.0 32.0,192.0 32.0,193.0 29.0,196.0 29.0,197.0 27.0,199.0 27.0,200.0 25.0,202.0 25.0,203.0 24.0,204.0 24.0,206.0 23.0,207.0 23.0,210.0 22.0,211.0 22.0,216.0 21.0,217.0 21.0,222.0 20.0,223.0 20.0,228.0 19.0,229.0 19.0,233.0 18.0,234.0 18.0,239.0 17.0,240.0 17.0,245.0 16.0,246.0 16.0,251.0 15.0,252.0 15.0,256.0 14.0,257.0 14.0,262.0 13.0,263.0 13.0,268.0 12.0,269.0 12.0,273.0 11.0,274.0 11.0,279.0 10.0,280.0 10.0,285.0 9.0,286.0 9.0,291.0 8.0,292.0 8.0,296.0 7.0,297.0 7.0,302.0 6.0,303.0 6.0,308.0 5.0,309.0 5.0,313.0 4.0,314.0 4.0,319.0 3.0,320.0 3.0,325.0 2.0,326.0 2.0,330.0 1.0,331.0 1.0,336.0 0.0,337.0 0.0,344.0 1.0,345.0 1.0,347.0 3.0,349.0 3.0,350.0 5.0,352.0 6.0,352.0 7.0,353.0 8.0,353.0 9.0,354.0 17.0,354.0 18.0,353.0 19.0,353.0 20.0,352.0 21.0,352.0 22.0,351.0 23.0,351.0 24.0,350.0 25.0,350.0 26.0,349.0 27.0,349.0 28.0,348.0 29.0,348.0 30.0,347.0 31.0,347.0 32.0,346.0 33.0,346.0 34.0,345.0 35.0,345.0 36.0,344.0 37.0,344.0 38.0,343.0 39.0,343.0 40.0,342.0 41.0,342.0 42.0,341.0 43.0,341.0 45.0,339.0 46.0,339.0 47.0,338.0 48.0,338.0 49.0,337.0 50.0,337.0 51.0,336.0 52.0,336.0 53.0,335.0 54.0,335.0 55.0,334.0 56.0,334.0 57.0,333.0 58.0,333.0 59.0,332.0 60.0,332.0 61.0,331.0 62.0,331.0 63.0,330.0 64.0,330.0 65.0,329.0 66.0,329.0 67.0,328.0 68.0,328.0 69.0,327.0 70.0,327.0 71.0,326.0 72.0,326.0 74.0,324.0 75.0,324.0 76.0,323.0 77.0,323.0 78.0,322.0 79.0,322.0 80.0,321.0 81.0,321.0 82.0,320.0 83.0,320.0 84.0,319.0 85.0,319.0 86.0,318.0 87.0,318.0 88.0,317.0 89.0,317.0 90.0,316.0 91.0,316.0 92.0,315.0 93.0,315.0 95.0,313.0 96.0,313.0 97.0,312.0 98.0,312.0 99.0,311.0 100.0,311.0 101.0,310.0 102.0,310.0 103.0,309.0 104.0,309.0 105.0,308.0 106.0,308.0 107.0,307.0 108.0,307.0 109.0,306.0 110.0,306.0 111.0,305.0 112.0,305.0 113.0,304.0 114.0,304.0 116.0,302.0 117.0,302.0 118.0,301.0 119.0,301.0 120.0,300.0 121.0,300.0 122.0,299.0 123.0,299.0 124.0,298.0 125.0,298.0 126.0,297.0 127.0,297.0 128.0,296.0 129.0,296.0 130.0,295.0 131.0,295.0 133.0,293.0 134.0,293.0 135.0,292.0 136.0,292.0 137.0,291.0 138.0,291.0 139.0,290.0 140.0,290.0 146.0,284.0 146.0,283.0 149.0,280.0 149.0,279.0 152.0,276.0 152.0,275.0 155.0,272.0 155.0,271.0 158.0,268.0 158.0,267.0 161.0,264.0 161.0,263.0 164.0,260.0 164.0,259.0 167.0,256.0 167.0,255.0 170.0,252.0 170.0,251.0 172.0,249.0 172.0,248.0 176.0,244.0 176.0,243.0 178.0,241.0 178.0,240.0 181.0,237.0 181.0,236.0 184.0,233.0 184.0,232.0 187.0,229.0 187.0,228.0 190.0,225.0 190.0,224.0 193.0,221.0 193.0,220.0 196.0,217.0 196.0,216.0 199.0,213.0 199.0,212.0 202.0,209.0 202.0,208.0 205.0,205.0 205.0,204.0 207.0,202.0 207.0,201.0 210.0,198.0 210.0,197.0 213.0,194.0 213.0,193.0 216.0,190.0 216.0,189.0 219.0,186.0 219.0,185.0 222.0,182.0 222.0,181.0 225.0,178.0 225.0,177.0 228.0,174.0 228.0,173.0 231.0,170.0 231.0,169.0 234.0,166.0 234.0,165.0 237.0,162.0 237.0,161.0 239.0,159.0 239.0,158.0 242.0,155.0 242.0,154.0 245.0,151.0 245.0,150.0 248.0,147.0 248.0,146.0 251.0,143.0 251.0,142.0 254.0,139.0 254.0,138.0 257.0,135.0 257.0,134.0 260.0,131.0 260.0,130.0 263.0,127.0 263.0,126.0 266.0,123.0 266.0,122.0 269.0,119.0 269.0,118.0 272.0,115.0 272.0,114.0 274.0,112.0 274.0,111.0 277.0,108.0 277.0,107.0 280.0,104.0 280.0,103.0 283.0,100.0 283.0,99.0 286.0,96.0 286.0,95.0 289.0,92.0 289.0,91.0 292.0,88.0 292.0,87.0 293.0,86.0 293.0,84.0 290.0,81.0 289.0,81.0 287.0,79.0 286.0,79.0 283.0,76.0 282.0,76.0 279.0,73.0 278.0,73.0 276.0,71.0 275.0,71.0 272.0,68.0 271.0,68.0 269.0,66.0 268.0,66.0 265.0,63.0 264.0,63.0 262.0,61.0 261.0,61.0 258.0,58.0 257.0,58.0 255.0,56.0 254.0,56.0 251.0,53.0 250.0,53.0 248.0,51.0 247.0,51.0 244.0,48.0 243.0,48.0 240.0,45.0 239.0,45.0 237.0,43.0 236.0,43.0 233.0,40.0 232.0,40.0 230.0,38.0 229.0,38.0 226.0,35.0 225.0,35.0 223.0,33.0 222.0,33.0 219.0,30.0 218.0,30.0 216.0,28.0 215.0,28.0 212.0,25.0 211.0,25.0 209.0,23.0 208.0,23.0 205.0,20.0 204.0,20.0 202.0,18.0 201.0,18.0 198.0,15.0 197.0,15.0 195.0,13.0 194.0,13.0 191.0,10.0 190.0,10.0 188.0,8.0 187.0,8.0 184.0,5.0 183.0,5.0 181.0,3.0 180.0,3.0 177.0,0.0" /></svg>